<svg width="61" height="9" viewBox="0 0 61 9" fill="none" xmlns="http://www.w3.org/2000/svg">
<path d="M7.824 8.492C7.72 8.492 7.616 8.476 7.512 8.444C7.408 8.42 7.308 8.38 7.212 8.324C6.908 8.132 6.62 7.872 6.348 7.544C6.084 7.216 5.844 6.864 5.628 6.488C5.42 6.104 5.24 5.736 5.088 5.384C4.944 5.032 4.836 4.736 4.764 4.496C4.628 4.648 4.468 4.796 4.284 4.94C4.108 5.076 3.956 5.212 3.828 5.348C3.764 5.692 3.7 6.032 3.636 6.368C3.58 6.704 3.54 6.956 3.516 7.124C3.5 7.276 3.532 7.392 3.612 7.472C3.7 7.544 3.78 7.588 3.852 7.604C3.932 7.612 4.064 7.62 4.248 7.628C4.44 7.636 4.628 7.644 4.812 7.652C4.996 7.652 5.116 7.652 5.172 7.652H5.184C5.216 7.652 5.232 7.664 5.232 7.688C5.232 7.72 5.212 7.756 5.172 7.796C5.132 7.836 5.092 7.852 5.052 7.844C4.796 7.828 4.5 7.816 4.164 7.808C3.828 7.8 3.496 7.796 3.168 7.796C3 7.796 2.84 7.796 2.688 7.796C2.544 7.796 2.404 7.8 2.268 7.808C2.148 7.808 1.972 7.812 1.74 7.82C1.508 7.828 1.252 7.836 0.972 7.844C0.692 7.844 0.424 7.844 0.168 7.844H0.156C0.132 7.844 0.12 7.832 0.12 7.808C0.12 7.776 0.14 7.74 0.18 7.7C0.22 7.652 0.256 7.632 0.288 7.64C0.48 7.64 0.652 7.644 0.804 7.652C0.956 7.652 1.092 7.652 1.212 7.652C1.5 7.652 1.712 7.624 1.848 7.568C1.984 7.504 2.092 7.376 2.172 7.184C2.252 6.992 2.348 6.696 2.46 6.296C2.716 5.424 2.924 4.588 3.084 3.788C3.244 2.98 3.396 2.14 3.54 1.268C3.564 1.108 3.536 0.972 3.456 0.86C3.376 0.74 3.28 0.672 3.168 0.655999C3.088 0.64 2.952 0.628 2.76 0.62C2.576 0.612 2.392 0.607999 2.208 0.607999C2.032 0.599999 1.912 0.599999 1.848 0.607999C1.8 0.607999 1.776 0.592 1.776 0.56C1.776 0.528 1.796 0.496 1.836 0.464C1.876 0.424 1.92 0.404 1.968 0.404C2.28 0.404 2.644 0.412 3.06 0.427999C3.476 0.444 3.868 0.452 4.236 0.452C4.332 0.452 4.42 0.452 4.5 0.452C4.588 0.452 4.672 0.448 4.752 0.439999C4.912 0.431999 5.116 0.427999 5.364 0.427999C5.612 0.427999 5.884 0.42 6.18 0.404C6.22 0.404 6.24 0.42 6.24 0.452C6.24 0.484 6.224 0.516 6.192 0.547999C6.168 0.579999 6.14 0.595999 6.108 0.595999C6.052 0.595999 5.988 0.592 5.916 0.584C5.852 0.576 5.756 0.572 5.628 0.572C5.356 0.572 5.156 0.652 5.028 0.812C4.908 0.964 4.78 1.24 4.644 1.64C4.596 1.792 4.532 2.028 4.452 2.348C4.372 2.668 4.288 3.036 4.2 3.452C4.12 3.86 4.036 4.28 3.948 4.712C4.372 4.272 4.8 3.82 5.232 3.356C5.664 2.892 6.088 2.432 6.504 1.976C6.76 1.712 6.932 1.496 7.02 1.328C7.116 1.152 7.164 1.012 7.164 0.908C7.164 0.764 7.104 0.676 6.984 0.644C6.864 0.612 6.776 0.595999 6.72 0.595999H6.672C6.624 0.595999 6.6 0.575999 6.6 0.536C6.6 0.503999 6.616 0.476 6.648 0.452C6.688 0.42 6.744 0.404 6.816 0.404C6.872 0.404 6.984 0.408 7.152 0.416C7.32 0.424 7.5 0.436 7.692 0.452C7.892 0.46 8.052 0.464 8.172 0.464C8.412 0.464 8.672 0.456 8.952 0.439999C9.24 0.424 9.576 0.416 9.96 0.416H9.972C9.996 0.416 10.008 0.428 10.008 0.452C10.008 0.484 9.988 0.524 9.948 0.572C9.908 0.612 9.872 0.628 9.84 0.62C9.536 0.604 9.28 0.624 9.072 0.68C8.872 0.736 8.684 0.828 8.508 0.956C8.332 1.076 8.124 1.236 7.884 1.436C7.748 1.548 7.568 1.712 7.344 1.928C7.12 2.136 6.876 2.364 6.612 2.612C6.356 2.86 6.104 3.104 5.856 3.344C5.616 3.584 5.412 3.792 5.244 3.968C5.084 4.144 4.984 4.264 4.944 4.328C5.032 4.464 5.192 4.656 5.424 4.904C5.656 5.152 5.924 5.424 6.228 5.72C6.532 6.008 6.836 6.292 7.14 6.572C7.452 6.844 7.732 7.084 7.98 7.292C8.228 7.5 8.408 7.636 8.52 7.7C8.632 7.772 8.756 7.84 8.892 7.904C9.036 7.96 9.136 7.996 9.192 8.012C9.24 8.036 9.264 8.068 9.264 8.108C9.264 8.164 9.232 8.192 9.168 8.192C9.136 8.192 9.096 8.18 9.048 8.156C8.984 8.124 8.924 8.108 8.868 8.108C8.804 8.108 8.752 8.124 8.712 8.156C8.68 8.196 8.644 8.228 8.604 8.252C8.38 8.412 8.12 8.492 7.824 8.492ZM12.6603 7.88L10.9203 7.808C10.8483 7.808 10.7723 7.808 10.6923 7.808C10.6203 7.8 10.5443 7.796 10.4643 7.796C10.1443 7.796 9.82028 7.804 9.49228 7.82C9.16428 7.836 8.83628 7.844 8.50828 7.844L8.64028 7.64C8.77628 7.648 8.90428 7.656 9.02428 7.664C9.14428 7.664 9.25628 7.664 9.36028 7.664C9.65628 7.664 9.92028 7.616 10.1523 7.52C10.3923 7.416 10.6363 7.188 10.8843 6.836C11.0203 6.652 11.1883 6.4 11.3883 6.08C11.5883 5.752 11.8003 5.404 12.0243 5.036C11.9043 5.028 11.7923 5.024 11.6883 5.024C11.5843 5.024 11.4843 5.024 11.3883 5.024C11.2523 5.024 11.1083 5.028 10.9563 5.036C10.8043 5.036 10.6323 5.044 10.4403 5.06H10.3083C10.2123 5.06 10.1643 5.048 10.1643 5.024C10.1643 4.984 10.2203 4.94 10.3323 4.892C10.4443 4.836 10.5323 4.8 10.5963 4.784C10.8123 4.744 11.0563 4.716 11.3283 4.7C11.6083 4.684 11.9203 4.668 12.2643 4.652C12.5123 4.236 12.7523 3.828 12.9843 3.428C13.2243 3.02 13.4323 2.66 13.6083 2.348C13.7923 2.028 13.9203 1.792 13.9923 1.64C14.0403 1.536 14.0803 1.436 14.1123 1.34C14.1443 1.236 14.1603 1.136 14.1603 1.04C14.1603 0.904 14.1163 0.796 14.0283 0.715999C13.9483 0.628 13.7923 0.58 13.5603 0.572C13.4163 0.572 13.2563 0.576 13.0803 0.584C12.9043 0.592 12.7443 0.599999 12.6003 0.607999L12.6723 0.404C12.9763 0.42 13.2483 0.431999 13.4883 0.439999C13.7283 0.448 13.9363 0.452 14.1123 0.452C14.2323 0.452 14.3403 0.452 14.4363 0.452C14.5323 0.444 14.6123 0.439999 14.6763 0.439999C14.8523 0.431999 15.0203 0.427999 15.1803 0.427999C15.3403 0.427999 15.5123 0.424 15.6963 0.416C15.7843 0.416 15.8243 0.472 15.8163 0.584C15.8163 0.688 15.8203 0.824 15.8283 0.991999C15.9003 1.912 15.9803 2.8 16.0683 3.656C16.1643 4.512 16.2963 5.392 16.4643 6.296C16.5443 6.696 16.6483 6.996 16.7763 7.196C16.9043 7.388 17.0403 7.516 17.1843 7.58C17.3363 7.636 17.4803 7.664 17.6163 7.664C17.6723 7.664 17.7243 7.664 17.7723 7.664C17.8203 7.656 17.8643 7.652 17.9043 7.652L17.7963 7.844C17.6763 7.836 17.5723 7.832 17.4843 7.832C17.3963 7.832 17.3163 7.832 17.2443 7.832C17.0683 7.832 16.9323 7.836 16.8363 7.844C16.7483 7.852 16.6363 7.852 16.5003 7.844C16.0843 7.82 15.6803 7.808 15.2883 7.808C14.9443 7.808 14.5923 7.82 14.2323 7.844L14.3523 7.652C14.4643 7.652 14.6003 7.652 14.7603 7.652C14.9203 7.644 15.0603 7.608 15.1803 7.544C15.3083 7.48 15.3723 7.36 15.3723 7.184C15.3723 6.984 15.3563 6.7 15.3243 6.332C15.2923 5.964 15.2483 5.556 15.1923 5.108C15.1363 4.652 15.0763 4.2 15.0123 3.752C14.9563 3.304 14.9003 2.9 14.8443 2.54C14.7883 2.172 14.7403 1.896 14.7003 1.712C14.3883 2.2 14.0843 2.688 13.7883 3.176C13.4923 3.656 13.2003 4.136 12.9123 4.616L13.5843 4.58C13.7683 4.572 13.9643 4.556 14.1723 4.532C14.3803 4.5 14.5643 4.468 14.7243 4.436C14.8843 4.396 14.9843 4.36 15.0243 4.328C15.0403 4.312 15.0563 4.304 15.0723 4.304C15.1043 4.304 15.1003 4.336 15.0603 4.4C15.0043 4.512 14.8963 4.62 14.7363 4.724C14.5843 4.828 14.4523 4.908 14.3403 4.964C14.1963 5.028 14.0483 5.06 13.8963 5.06C13.7523 5.06 13.6003 5.06 13.4403 5.06C13.2883 5.06 13.1483 5.06 13.0203 5.06C12.9003 5.052 12.7843 5.048 12.6723 5.048C12.5523 5.256 12.4363 5.464 12.3243 5.672C12.2123 5.88 12.1003 6.088 11.9883 6.296C11.8843 6.496 11.8083 6.668 11.7603 6.812C11.7123 6.956 11.6883 7.08 11.6883 7.184C11.6883 7.4 11.7683 7.54 11.9283 7.604C12.0883 7.66 12.2603 7.688 12.4443 7.688C12.5083 7.688 12.5683 7.688 12.6243 7.688C12.6883 7.68 12.7483 7.676 12.8043 7.676L12.6603 7.88ZM24.9964 8.024C24.8204 7.64 24.6124 7.22 24.3724 6.764C24.1324 6.3 23.8804 5.828 23.6164 5.348C23.3604 4.86 23.1044 4.388 22.8484 3.932C22.6004 3.476 22.3724 3.06 22.1644 2.684C21.9644 2.308 21.8084 2 21.6964 1.76C21.6724 1.864 21.6324 2.048 21.5764 2.312C21.5204 2.568 21.4524 2.872 21.3724 3.224C21.3004 3.576 21.2244 3.948 21.1444 4.34C21.0724 4.724 21.0004 5.1 20.9284 5.468C20.8564 5.836 20.7924 6.168 20.7364 6.464C20.6884 6.752 20.6564 6.972 20.6404 7.124C20.6324 7.228 20.6644 7.316 20.7364 7.388C20.8084 7.46 20.8884 7.516 20.9764 7.556C21.0724 7.588 21.1444 7.608 21.1924 7.616C21.3284 7.624 21.5004 7.632 21.7084 7.64C21.9164 7.648 22.1444 7.652 22.3924 7.652C22.4324 7.652 22.4524 7.664 22.4524 7.688C22.4524 7.72 22.4324 7.756 22.3924 7.796C22.3524 7.828 22.3124 7.844 22.2724 7.844C22.2004 7.844 22.0484 7.84 21.8164 7.832C21.5844 7.816 21.3204 7.804 21.0244 7.796C20.7364 7.78 20.4604 7.772 20.1964 7.772C20.1244 7.772 20.0524 7.776 19.9804 7.784C19.9164 7.784 19.8524 7.784 19.7884 7.784C19.6524 7.792 19.4484 7.804 19.1764 7.82C18.9124 7.828 18.6284 7.832 18.3244 7.832C18.2284 7.832 18.1284 7.832 18.0244 7.832C17.9284 7.824 17.8284 7.82 17.7244 7.82H17.7124C17.6804 7.82 17.6524 7.808 17.6284 7.784C17.6124 7.752 17.6044 7.724 17.6044 7.7C17.6044 7.652 17.6324 7.632 17.6884 7.64C17.8244 7.64 17.9484 7.644 18.0604 7.652C18.1724 7.652 18.2804 7.652 18.3844 7.652C18.6964 7.652 18.9444 7.624 19.1284 7.568C19.3204 7.512 19.4764 7.388 19.5964 7.196C19.7244 7.004 19.8484 6.704 19.9684 6.296C20.2244 5.424 20.4324 4.588 20.5924 3.788C20.7524 2.98 20.9044 2.14 21.0484 1.268C21.0724 1.108 21.0444 0.972 20.9644 0.86C20.8924 0.74 20.8004 0.672 20.6884 0.655999C20.6084 0.64 20.4724 0.628 20.2804 0.62C20.0884 0.612 19.9004 0.607999 19.7164 0.607999C19.5404 0.599999 19.4204 0.599999 19.3564 0.607999C19.3164 0.607999 19.2964 0.595999 19.2964 0.572C19.2964 0.54 19.3164 0.504 19.3564 0.464C19.4044 0.424 19.4444 0.404 19.4764 0.404C19.7564 0.404 20.0764 0.412 20.4364 0.427999C20.8044 0.444 21.1604 0.452 21.5044 0.452C21.6644 0.452 21.7924 0.444 21.8884 0.427999C21.9924 0.412 22.1084 0.404 22.2364 0.404C22.3084 0.404 22.3604 0.424 22.3924 0.464C22.4324 0.496 22.4804 0.588 22.5364 0.74C22.5924 0.884 22.6884 1.096 22.8244 1.376C22.9684 1.656 23.1324 1.972 23.3164 2.324C23.5004 2.668 23.6924 3.028 23.8924 3.404C24.0924 3.772 24.2884 4.128 24.4804 4.472C24.6724 4.808 24.8404 5.104 24.9844 5.36C25.1364 5.608 25.2484 5.788 25.3204 5.9C25.3684 5.716 25.4244 5.464 25.4884 5.144C25.5524 4.824 25.6204 4.472 25.6924 4.088C25.7644 3.704 25.8324 3.324 25.8964 2.948C25.9604 2.564 26.0164 2.216 26.0644 1.904C26.1204 1.592 26.1564 1.352 26.1724 1.184C26.1884 1.048 26.1484 0.94 26.0524 0.86C25.9564 0.78 25.8324 0.72 25.6804 0.68C25.5364 0.64 25.3884 0.616 25.2364 0.607999C25.0924 0.592 24.9764 0.584 24.8884 0.584H24.8764C24.8444 0.584 24.8284 0.572 24.8284 0.547999C24.8284 0.516 24.8484 0.484 24.8884 0.452C24.9284 0.412 24.9684 0.392 25.0084 0.392C25.1044 0.392 25.2964 0.4 25.5844 0.416C25.8804 0.431999 26.1924 0.439999 26.5204 0.439999C26.6084 0.439999 26.6924 0.439999 26.7724 0.439999C26.8524 0.439999 26.9324 0.435999 27.0124 0.427999C27.1324 0.42 27.3084 0.416 27.5404 0.416C27.7724 0.416 28.0244 0.416 28.2964 0.416C28.5764 0.408 28.8484 0.404 29.1124 0.404C29.1444 0.404 29.1604 0.416 29.1604 0.439999C29.1604 0.471999 29.1404 0.512 29.1004 0.56C29.0604 0.608 29.0204 0.628 28.9804 0.62C28.5324 0.612 28.1804 0.623999 27.9244 0.655999C27.6684 0.68 27.4724 0.74 27.3364 0.836C27.2084 0.924 27.1084 1.06 27.0364 1.244C26.9724 1.42 26.9004 1.66 26.8204 1.964C26.7644 2.164 26.7004 2.424 26.6284 2.744C26.5644 3.064 26.4924 3.412 26.4124 3.788C26.3404 4.164 26.2684 4.532 26.1964 4.892C26.1244 5.252 26.0604 5.576 26.0044 5.864C25.9564 6.152 25.9204 6.372 25.8964 6.524C25.9524 6.628 25.9804 6.744 25.9804 6.872C25.9804 7.104 25.8924 7.296 25.7164 7.448C25.6444 7.504 25.5564 7.592 25.4524 7.712C25.3484 7.824 25.2524 7.92 25.1644 8C25.0764 8.072 25.0204 8.08 24.9964 8.024ZM27.5193 7.844C27.4953 7.844 27.4833 7.832 27.4833 7.808C27.4833 7.776 27.5033 7.74 27.5433 7.7C27.5913 7.652 27.6313 7.632 27.6633 7.64C27.8553 7.64 28.0273 7.644 28.1793 7.652C28.3313 7.652 28.4633 7.652 28.5753 7.652C28.8633 7.652 29.0753 7.624 29.2113 7.568C29.3473 7.504 29.4553 7.376 29.5353 7.184C29.6153 6.992 29.7113 6.696 29.8233 6.296C30.0713 5.424 30.2753 4.588 30.4353 3.788C30.5953 2.98 30.7473 2.14 30.8913 1.268C30.8993 1.244 30.9033 1.208 30.9033 1.16C30.9033 1.024 30.8633 0.912 30.7833 0.823999C30.7033 0.728 30.6193 0.672 30.5313 0.655999C30.4513 0.64 30.3153 0.628 30.1233 0.62C29.9393 0.612 29.7553 0.607999 29.5713 0.607999C29.3873 0.599999 29.2673 0.599999 29.2113 0.607999C29.1713 0.607999 29.1513 0.592 29.1513 0.56C29.1513 0.528 29.1713 0.496 29.2113 0.464C29.2513 0.424 29.2913 0.404 29.3313 0.404C29.6433 0.404 30.0073 0.412 30.4233 0.427999C30.8393 0.444 31.2313 0.452 31.5993 0.452C31.6953 0.452 31.7833 0.452 31.8633 0.452C31.9513 0.452 32.0353 0.448 32.1153 0.439999C32.2513 0.431999 32.4633 0.424 32.7513 0.416C33.0473 0.408 33.3553 0.404 33.6753 0.404C33.7793 0.404 33.8793 0.408 33.9753 0.416C34.0793 0.416 34.1753 0.416 34.2633 0.416H34.2753C34.2993 0.416 34.3113 0.428 34.3113 0.452C34.3113 0.484 34.2913 0.524 34.2513 0.572C34.2113 0.612 34.1753 0.628 34.1433 0.62C33.9433 0.62 33.7633 0.616 33.6033 0.607999C33.4513 0.599999 33.3113 0.595999 33.1833 0.595999C32.9033 0.595999 32.6913 0.628 32.5473 0.692C32.4033 0.747999 32.2913 0.875999 32.2113 1.076C32.1313 1.268 32.0353 1.564 31.9233 1.964C31.8593 2.212 31.7833 2.52 31.6953 2.888C31.6153 3.256 31.5313 3.648 31.4433 4.064C31.3553 4.472 31.2713 4.876 31.1913 5.276C31.1193 5.676 31.0553 6.04 30.9993 6.368C30.9433 6.688 30.9073 6.94 30.8913 7.124C30.8753 7.276 30.9073 7.392 30.9873 7.472C31.0673 7.544 31.1433 7.588 31.2153 7.604C31.2953 7.612 31.4273 7.62 31.6113 7.628C31.8033 7.636 31.9913 7.644 32.1753 7.652C32.3593 7.652 32.4793 7.652 32.5353 7.652H32.5473C32.5873 7.652 32.6073 7.664 32.6073 7.688C32.6073 7.72 32.5873 7.756 32.5473 7.796C32.5073 7.828 32.4633 7.844 32.4153 7.844C32.0953 7.844 31.7273 7.836 31.3113 7.82C30.9033 7.804 30.5153 7.796 30.1473 7.796C30.0513 7.796 29.9593 7.796 29.8713 7.796C29.7913 7.796 29.7113 7.8 29.6313 7.808C29.5113 7.808 29.3313 7.812 29.0913 7.82C28.8593 7.828 28.6033 7.836 28.3233 7.844C28.0513 7.844 27.7873 7.844 27.5313 7.844H27.5193ZM35.1087 7.988C34.9087 7.988 34.7167 7.964 34.5327 7.916C34.3567 7.86 34.2167 7.764 34.1127 7.628C34.0567 7.548 33.9727 7.436 33.8607 7.292C33.7567 7.14 33.7047 6.996 33.7047 6.86C33.7047 6.764 33.7287 6.688 33.7767 6.632C33.8887 6.488 33.9767 6.356 34.0407 6.236C34.1127 6.116 34.1847 5.972 34.2567 5.804C34.3287 5.628 34.4167 5.396 34.5207 5.108C34.5607 5.02 34.5927 4.924 34.6167 4.82C34.6407 4.716 34.6887 4.684 34.7607 4.724C34.7927 4.74 34.7927 4.82 34.7607 4.964C34.7287 5.1 34.7047 5.224 34.6887 5.336C34.6807 5.376 34.6767 5.416 34.6767 5.456C34.6767 5.496 34.6767 5.536 34.6767 5.576C34.6767 5.976 34.7567 6.308 34.9167 6.572C35.0847 6.836 35.2967 7.032 35.5527 7.16C35.8167 7.28 36.0967 7.34 36.3927 7.34C36.7207 7.34 37.0407 7.268 37.3527 7.124C37.6727 6.972 37.9407 6.752 38.1567 6.464C38.3727 6.176 38.4967 5.828 38.5287 5.42C38.5447 5.156 38.4927 4.948 38.3727 4.796C38.2527 4.644 38.0887 4.532 37.8807 4.46C37.6727 4.388 37.4407 4.34 37.1847 4.316C36.9367 4.292 36.6887 4.272 36.4407 4.256C35.8487 4.216 35.4007 4.052 35.0967 3.764C34.7927 3.468 34.6527 3.148 34.6767 2.804C34.7007 2.42 34.8487 2.068 35.1207 1.748C35.3927 1.428 35.7327 1.148 36.1407 0.908C36.5487 0.668 36.9807 0.483999 37.4367 0.356C37.8927 0.227999 38.3207 0.163999 38.7207 0.163999C39.0327 0.163999 39.3087 0.207999 39.5487 0.296C39.7887 0.384 39.9647 0.52 40.0767 0.704C40.1887 0.895999 40.2447 1.056 40.2447 1.184C40.2447 1.264 40.2247 1.344 40.1847 1.424C40.1447 1.496 40.0847 1.58 40.0047 1.676C39.9087 1.804 39.8247 1.912 39.7527 2C39.6887 2.088 39.6207 2.196 39.5487 2.324C39.4847 2.444 39.4007 2.612 39.2967 2.828C39.2567 2.916 39.2127 2.96 39.1647 2.96C39.1327 2.96 39.1167 2.932 39.1167 2.876C39.1167 2.828 39.1327 2.776 39.1647 2.72C39.2367 2.488 39.2727 2.284 39.2727 2.108C39.2727 1.812 39.1967 1.564 39.0447 1.364C38.9007 1.156 38.7127 1 38.4807 0.896C38.2487 0.784 38.0007 0.728 37.7367 0.728C37.4647 0.728 37.2007 0.788 36.9447 0.908C36.6967 1.02 36.4847 1.2 36.3087 1.448C36.1407 1.688 36.0407 1.996 36.0087 2.372C35.9927 2.596 36.0407 2.776 36.1527 2.912C36.2647 3.048 36.4127 3.152 36.5967 3.224C36.7887 3.296 36.9847 3.348 37.1847 3.38C37.3927 3.412 37.5847 3.432 37.7607 3.44C37.9367 3.44 38.0647 3.444 38.1447 3.452C38.7927 3.476 39.2327 3.596 39.4647 3.812C39.7047 4.02 39.8167 4.272 39.8007 4.568C39.7687 4.984 39.6207 5.396 39.3567 5.804C39.1007 6.204 38.7567 6.572 38.3247 6.908C37.8927 7.236 37.4007 7.5 36.8487 7.7C36.2967 7.892 35.7167 7.988 35.1087 7.988ZM39.9755 7.844L40.0955 7.64H40.2755C40.4595 7.64 40.6195 7.644 40.7555 7.652C40.8995 7.66 41.0275 7.664 41.1395 7.664C41.4195 7.664 41.6235 7.636 41.7515 7.58C41.8875 7.516 41.9955 7.388 42.0755 7.196C42.1555 6.996 42.2515 6.696 42.3635 6.296C42.6195 5.424 42.8275 4.588 42.9875 3.788C43.1475 2.98 43.2995 2.14 43.4435 1.268C43.4675 1.108 43.4355 0.972 43.3475 0.86C43.2675 0.74 43.1755 0.672 43.0715 0.655999C43.0075 0.64 42.8995 0.628 42.7475 0.62C42.6035 0.612 42.4515 0.607999 42.2915 0.607999C42.1395 0.599999 42.0075 0.599999 41.8955 0.607999L41.6195 0.62L41.7395 0.416L41.9075 0.404C41.9715 0.396 42.0355 0.392 42.0995 0.392C42.1715 0.392 42.2435 0.392 42.3155 0.392C42.6035 0.392 42.9075 0.404 43.2275 0.427999C43.5555 0.444 43.8635 0.452 44.1515 0.452C44.2395 0.452 44.3235 0.452 44.4035 0.452C44.4915 0.444 44.5755 0.439999 44.6555 0.439999L46.3835 0.392L46.3715 0.584C46.3715 0.584 46.3115 0.584 46.1915 0.584C46.0795 0.584 45.9515 0.584 45.8075 0.584C45.6715 0.584 45.5675 0.588 45.4955 0.595999C45.2475 0.62 45.0595 0.696 44.9315 0.823999C44.8115 0.944 44.6875 1.204 44.5595 1.604C44.5195 1.74 44.4595 1.972 44.3795 2.3C44.2995 2.62 44.2195 2.976 44.1395 3.368C44.1395 3.376 44.1355 3.384 44.1275 3.392C44.1275 3.4 44.1275 3.412 44.1275 3.428C44.1275 3.468 44.1435 3.508 44.1755 3.548C44.2155 3.58 44.2915 3.596 44.4035 3.596H47.5835C47.6955 3.596 47.7795 3.576 47.8355 3.536C47.8995 3.496 47.9435 3.416 47.9675 3.296C48.0315 2.936 48.0955 2.572 48.1595 2.204C48.2315 1.836 48.2995 1.46 48.3635 1.076C48.3955 0.924 48.3675 0.812 48.2795 0.74C48.1995 0.66 48.1235 0.616 48.0515 0.607999C48.0035 0.592 47.9355 0.584 47.8475 0.584C47.7595 0.584 47.6715 0.584 47.5835 0.584C47.4395 0.584 47.3075 0.588 47.1875 0.595999C47.0675 0.595999 47.0075 0.595999 47.0075 0.595999L47.1275 0.404C47.1275 0.404 47.2275 0.408 47.4275 0.416C47.6275 0.424 47.8715 0.436 48.1595 0.452C48.4475 0.46 48.7195 0.464 48.9755 0.464C49.0315 0.464 49.1075 0.464 49.2035 0.464C49.3075 0.456 49.4275 0.448 49.5635 0.439999C49.6995 0.431999 49.9075 0.427999 50.1875 0.427999C50.4675 0.42 50.7595 0.416 51.0635 0.416H51.8195L51.6875 0.62H50.7155C50.4755 0.62 50.2835 0.632 50.1395 0.655999C50.0035 0.68 49.8955 0.736 49.8155 0.823999C49.7355 0.912 49.6635 1.048 49.5995 1.232C49.5435 1.408 49.4715 1.652 49.3835 1.964C49.3115 2.212 49.2315 2.52 49.1435 2.888C49.0635 3.256 48.9795 3.648 48.8915 4.064C48.8115 4.472 48.7315 4.876 48.6515 5.276C48.5795 5.676 48.5155 6.04 48.4595 6.368C48.4115 6.688 48.3755 6.94 48.3515 7.124C48.3355 7.276 48.3675 7.392 48.4475 7.472C48.5275 7.544 48.5995 7.588 48.6635 7.604C48.7515 7.612 48.8875 7.62 49.0715 7.628C49.2635 7.636 49.4515 7.644 49.6355 7.652C49.8195 7.652 49.9395 7.652 49.9955 7.652H50.0075C50.0395 7.652 50.0555 7.664 50.0555 7.688C50.0555 7.72 50.0355 7.756 49.9955 7.796C49.9555 7.828 49.9155 7.844 49.8755 7.844C49.5555 7.844 49.1875 7.836 48.7715 7.82C48.3555 7.804 47.9635 7.796 47.5955 7.796C47.4995 7.796 47.4075 7.8 47.3195 7.808C47.2395 7.808 47.1595 7.808 47.0795 7.808L45.8795 7.844H45.6875L45.7595 7.652H45.8915C45.9715 7.652 46.0435 7.656 46.1075 7.664C46.1795 7.672 46.2435 7.676 46.2995 7.676C46.4675 7.676 46.6075 7.644 46.7195 7.58C46.8315 7.516 46.9355 7.388 47.0315 7.196C47.1275 6.996 47.2315 6.696 47.3435 6.296C47.4395 5.952 47.5155 5.62 47.5715 5.3C47.6275 4.98 47.6875 4.66 47.7515 4.34C47.7595 4.308 47.7635 4.268 47.7635 4.22C47.7635 4.148 47.7355 4.108 47.6795 4.1C47.6315 4.084 47.5595 4.076 47.4635 4.076H44.1875C44.1075 4.076 44.0435 4.108 43.9955 4.172C43.9555 4.236 43.9275 4.316 43.9115 4.412C43.8635 4.684 43.8035 5 43.7315 5.36C43.6595 5.72 43.5955 6.064 43.5395 6.392C43.4835 6.712 43.4435 6.956 43.4195 7.124C43.4115 7.276 43.4475 7.392 43.5275 7.472C43.6075 7.544 43.6835 7.588 43.7555 7.604C43.8515 7.62 43.9755 7.636 44.1275 7.652C44.2795 7.668 44.4155 7.672 44.5355 7.664L44.8475 7.652L44.7275 7.844H44.5115C44.2635 7.844 44.0035 7.836 43.7315 7.82C43.4675 7.804 43.2035 7.796 42.9395 7.796C42.8115 7.796 42.6795 7.796 42.5435 7.796C42.4155 7.796 42.2875 7.8 42.1595 7.808C42.0555 7.808 41.8995 7.812 41.6915 7.82C41.4835 7.828 41.2515 7.836 40.9955 7.844C40.7475 7.844 40.4995 7.844 40.2515 7.844H39.9755ZM57.9685 8.492C57.8645 8.492 57.7605 8.476 57.6565 8.444C57.5525 8.42 57.4525 8.38 57.3565 8.324C57.0525 8.132 56.7645 7.872 56.4925 7.544C56.2285 7.216 55.9885 6.864 55.7725 6.488C55.5645 6.104 55.3845 5.736 55.2325 5.384C55.0885 5.032 54.9805 4.736 54.9085 4.496C54.7725 4.648 54.6125 4.796 54.4285 4.94C54.2525 5.076 54.1005 5.212 53.9725 5.348C53.9085 5.692 53.8445 6.032 53.7805 6.368C53.7245 6.704 53.6845 6.956 53.6605 7.124C53.6445 7.276 53.6765 7.392 53.7565 7.472C53.8445 7.544 53.9245 7.588 53.9965 7.604C54.0765 7.612 54.2085 7.62 54.3925 7.628C54.5845 7.636 54.7725 7.644 54.9565 7.652C55.1405 7.652 55.2605 7.652 55.3165 7.652H55.3285C55.3605 7.652 55.3765 7.664 55.3765 7.688C55.3765 7.72 55.3565 7.756 55.3165 7.796C55.2765 7.836 55.2365 7.852 55.1965 7.844C54.9405 7.828 54.6445 7.816 54.3085 7.808C53.9725 7.8 53.6405 7.796 53.3125 7.796C53.1445 7.796 52.9845 7.796 52.8325 7.796C52.6885 7.796 52.5485 7.8 52.4125 7.808C52.2925 7.808 52.1165 7.812 51.8845 7.82C51.6525 7.828 51.3965 7.836 51.1165 7.844C50.8365 7.844 50.5685 7.844 50.3125 7.844H50.3005C50.2765 7.844 50.2645 7.832 50.2645 7.808C50.2645 7.776 50.2845 7.74 50.3245 7.7C50.3645 7.652 50.4005 7.632 50.4325 7.64C50.6245 7.64 50.7965 7.644 50.9485 7.652C51.1005 7.652 51.2365 7.652 51.3565 7.652C51.6445 7.652 51.8565 7.624 51.9925 7.568C52.1285 7.504 52.2365 7.376 52.3165 7.184C52.3965 6.992 52.4925 6.696 52.6045 6.296C52.8605 5.424 53.0685 4.588 53.2285 3.788C53.3885 2.98 53.5405 2.14 53.6845 1.268C53.7085 1.108 53.6805 0.972 53.6005 0.86C53.5205 0.74 53.4245 0.672 53.3125 0.655999C53.2325 0.64 53.0965 0.628 52.9045 0.62C52.7205 0.612 52.5365 0.607999 52.3525 0.607999C52.1765 0.599999 52.0565 0.599999 51.9925 0.607999C51.9445 0.607999 51.9205 0.592 51.9205 0.56C51.9205 0.528 51.9405 0.496 51.9805 0.464C52.0205 0.424 52.0645 0.404 52.1125 0.404C52.4245 0.404 52.7885 0.412 53.2045 0.427999C53.6205 0.444 54.0125 0.452 54.3805 0.452C54.4765 0.452 54.5645 0.452 54.6445 0.452C54.7325 0.452 54.8165 0.448 54.8965 0.439999C55.0565 0.431999 55.2605 0.427999 55.5085 0.427999C55.7565 0.427999 56.0285 0.42 56.3245 0.404C56.3645 0.404 56.3845 0.42 56.3845 0.452C56.3845 0.484 56.3685 0.516 56.3365 0.547999C56.3125 0.579999 56.2845 0.595999 56.2525 0.595999C56.1965 0.595999 56.1325 0.592 56.0605 0.584C55.9965 0.576 55.9005 0.572 55.7725 0.572C55.5005 0.572 55.3005 0.652 55.1725 0.812C55.0525 0.964 54.9245 1.24 54.7885 1.64C54.7405 1.792 54.6765 2.028 54.5965 2.348C54.5165 2.668 54.4325 3.036 54.3445 3.452C54.2645 3.86 54.1805 4.28 54.0925 4.712C54.5165 4.272 54.9445 3.82 55.3765 3.356C55.8085 2.892 56.2325 2.432 56.6485 1.976C56.9045 1.712 57.0765 1.496 57.1645 1.328C57.2605 1.152 57.3085 1.012 57.3085 0.908C57.3085 0.764 57.2485 0.676 57.1285 0.644C57.0085 0.612 56.9205 0.595999 56.8645 0.595999H56.8165C56.7685 0.595999 56.7445 0.575999 56.7445 0.536C56.7445 0.503999 56.7605 0.476 56.7925 0.452C56.8325 0.42 56.8885 0.404 56.9605 0.404C57.0165 0.404 57.1285 0.408 57.2965 0.416C57.4645 0.424 57.6445 0.436 57.8365 0.452C58.0365 0.46 58.1965 0.464 58.3165 0.464C58.5565 0.464 58.8165 0.456 59.0965 0.439999C59.3845 0.424 59.7205 0.416 60.1045 0.416H60.1165C60.1405 0.416 60.1525 0.428 60.1525 0.452C60.1525 0.484 60.1325 0.524 60.0925 0.572C60.0525 0.612 60.0165 0.628 59.9845 0.62C59.6805 0.604 59.4245 0.624 59.2165 0.68C59.0165 0.736 58.8285 0.828 58.6525 0.956C58.4765 1.076 58.2685 1.236 58.0285 1.436C57.8925 1.548 57.7125 1.712 57.4885 1.928C57.2645 2.136 57.0205 2.364 56.7565 2.612C56.5005 2.86 56.2485 3.104 56.0005 3.344C55.7605 3.584 55.5565 3.792 55.3885 3.968C55.2285 4.144 55.1285 4.264 55.0885 4.328C55.1765 4.464 55.3365 4.656 55.5685 4.904C55.8005 5.152 56.0685 5.424 56.3725 5.72C56.6765 6.008 56.9805 6.292 57.2845 6.572C57.5965 6.844 57.8765 7.084 58.1245 7.292C58.3725 7.5 58.5525 7.636 58.6645 7.7C58.7765 7.772 58.9005 7.84 59.0365 7.904C59.1805 7.96 59.2805 7.996 59.3365 8.012C59.3845 8.036 59.4085 8.068 59.4085 8.108C59.4085 8.164 59.3765 8.192 59.3125 8.192C59.2805 8.192 59.2405 8.18 59.1925 8.156C59.1285 8.124 59.0685 8.108 59.0125 8.108C58.9485 8.108 58.8965 8.124 58.8565 8.156C58.8245 8.196 58.7885 8.228 58.7485 8.252C58.5245 8.412 58.2645 8.492 57.9685 8.492Z" fill="white"/>
</svg>
