<svg width="45" height="9" viewBox="0 0 45 9" fill="none" xmlns="http://www.w3.org/2000/svg">
<path d="M0.164 7.844C0.14 7.844 0.128 7.832 0.128 7.808C0.128 7.776 0.148 7.74 0.188 7.7C0.228 7.652 0.264 7.632 0.296 7.64C0.416 7.64 0.528 7.644 0.632 7.652C0.744 7.652 0.844 7.652 0.932 7.652C1.22 7.652 1.444 7.64 1.604 7.616C1.772 7.584 1.9 7.524 1.988 7.436C2.084 7.34 2.164 7.2 2.228 7.016C2.292 6.832 2.364 6.588 2.444 6.284C2.644 5.564 2.82 4.836 2.972 4.1C3.132 3.356 3.276 2.616 3.404 1.88C3.42 1.792 3.432 1.708 3.44 1.628C3.456 1.548 3.464 1.48 3.464 1.424C3.464 1.216 3.396 1.08 3.26 1.016C3.132 0.952 2.904 0.92 2.576 0.92C2.096 0.92 1.7 1.076 1.388 1.388C1.076 1.692 0.812 2.108 0.596 2.636C0.588 2.66 0.572 2.672 0.548 2.672C0.532 2.672 0.512 2.66 0.488 2.636C0.472 2.604 0.468 2.572 0.476 2.54C0.516 2.444 0.56 2.316 0.608 2.156C0.656 1.988 0.716 1.808 0.788 1.616C0.876 1.384 0.952 1.172 1.016 0.98C1.088 0.78 1.18 0.62 1.292 0.5C1.404 0.38 1.568 0.328 1.784 0.344C2.088 0.368 2.472 0.395999 2.936 0.427999C3.408 0.452 3.9 0.464 4.412 0.464C4.7 0.464 4.956 0.46 5.18 0.452C5.412 0.444 5.648 0.431999 5.888 0.416C6.128 0.4 6.416 0.384 6.752 0.368C6.96 0.352 7.104 0.38 7.184 0.452C7.264 0.516 7.304 0.628 7.304 0.788C7.304 0.884 7.292 1 7.268 1.136C7.236 1.32 7.208 1.484 7.184 1.628C7.168 1.772 7.152 1.92 7.136 2.072C7.128 2.224 7.108 2.408 7.076 2.624C7.068 2.672 7.04 2.696 6.992 2.696C6.968 2.696 6.944 2.68 6.92 2.648C6.904 2.616 6.9 2.572 6.908 2.516C6.932 2.356 6.944 2.216 6.944 2.096C6.944 1.696 6.852 1.42 6.668 1.268C6.484 1.108 6.244 1.028 5.948 1.028C5.564 1.028 5.28 1.072 5.096 1.16C4.912 1.248 4.788 1.344 4.724 1.448C4.66 1.544 4.604 1.62 4.556 1.676C4.532 1.708 4.492 1.836 4.436 2.06C4.38 2.284 4.316 2.568 4.244 2.912C4.172 3.256 4.1 3.62 4.028 4.004C3.956 4.388 3.888 4.76 3.824 5.12C3.76 5.48 3.708 5.788 3.668 6.044C3.628 6.3 3.608 6.468 3.608 6.548C3.608 6.596 3.604 6.66 3.596 6.74C3.588 6.812 3.584 6.892 3.584 6.98C3.584 7.116 3.604 7.244 3.644 7.364C3.684 7.484 3.772 7.556 3.908 7.58C3.972 7.588 4.08 7.596 4.232 7.604C4.392 7.612 4.568 7.62 4.76 7.628C4.96 7.636 5.148 7.64 5.324 7.64C5.5 7.64 5.632 7.636 5.72 7.628C5.76 7.628 5.78 7.644 5.78 7.676C5.78 7.708 5.76 7.744 5.72 7.784C5.68 7.824 5.64 7.844 5.6 7.844C5.392 7.844 5.128 7.84 4.808 7.832C4.488 7.824 4.152 7.816 3.8 7.808C3.456 7.8 3.136 7.796 2.84 7.796C2.736 7.796 2.632 7.796 2.528 7.796C2.432 7.796 2.344 7.8 2.264 7.808C2.152 7.808 1.98 7.812 1.748 7.82C1.516 7.828 1.26 7.836 0.98 7.844C0.7 7.844 0.432 7.844 0.176 7.844H0.164ZM12.4557 7.928C12.2637 7.928 12.0157 7.916 11.7117 7.892C11.4157 7.868 11.0557 7.84 10.6317 7.808C10.3117 7.784 10.0197 7.772 9.75566 7.772C9.57966 7.772 9.39966 7.776 9.21566 7.784C9.03966 7.784 8.83966 7.792 8.61566 7.808C8.50366 7.808 8.33166 7.812 8.09966 7.82C7.86766 7.828 7.61166 7.836 7.33166 7.844C7.05166 7.844 6.77966 7.844 6.51566 7.844H6.50366C6.47966 7.844 6.46766 7.836 6.46766 7.82C6.46766 7.788 6.48766 7.752 6.52766 7.712C6.57566 7.664 6.61566 7.64 6.64766 7.64C6.83966 7.648 7.01166 7.656 7.16366 7.664C7.31566 7.664 7.45166 7.664 7.57166 7.664C7.85966 7.664 8.06766 7.636 8.19566 7.58C8.33166 7.516 8.43966 7.388 8.51966 7.196C8.59966 6.996 8.69966 6.696 8.81966 6.296C8.92366 5.944 9.01966 5.584 9.10766 5.216C9.20366 4.848 9.28766 4.492 9.35966 4.148C9.30366 4.156 9.23966 4.16 9.16766 4.16C9.09566 4.16 9.03166 4.164 8.97566 4.172H8.84366C8.74766 4.172 8.69966 4.16 8.69966 4.136C8.69966 4.096 8.75566 4.052 8.86766 4.004C8.97966 3.948 9.06766 3.912 9.13166 3.896C9.15566 3.88 9.19166 3.872 9.23966 3.872C9.29566 3.872 9.35166 3.868 9.40766 3.86C9.49566 3.42 9.56766 3.024 9.62366 2.672C9.67966 2.32 9.71566 2.052 9.73166 1.868C9.74766 1.796 9.75966 1.712 9.76766 1.616C9.77566 1.512 9.77966 1.408 9.77966 1.304C9.77966 1.152 9.75566 1.012 9.70766 0.883999C9.65966 0.756 9.55966 0.68 9.40766 0.655999C9.34366 0.64 9.23966 0.632 9.09566 0.632C8.95166 0.624 8.79966 0.62 8.63966 0.62C8.48766 0.612 8.35566 0.607999 8.24366 0.607999H7.97966L8.09966 0.416L8.32766 0.404C8.39166 0.396 8.45566 0.392 8.51966 0.392C8.59166 0.392 8.65966 0.392 8.72366 0.392C9.03566 0.392 9.33566 0.404 9.62366 0.427999C9.91966 0.444 10.2037 0.452 10.4757 0.452C11.0917 0.452 11.6557 0.448 12.1677 0.439999C12.6797 0.424 13.2357 0.4 13.8357 0.368C14.0437 0.352 14.1877 0.38 14.2677 0.452C14.3557 0.516 14.3997 0.631999 14.3997 0.8C14.3997 0.888 14.3877 1 14.3637 1.136C14.3157 1.4 14.2837 1.624 14.2677 1.808C14.2517 1.992 14.2277 2.22 14.1957 2.492C14.1877 2.516 14.1797 2.564 14.1717 2.636C14.1637 2.7 14.1597 2.732 14.1597 2.732L13.9917 2.624C13.9917 2.624 13.9957 2.592 14.0037 2.528C14.0117 2.464 14.0157 2.424 14.0157 2.408C14.0237 2.344 14.0277 2.284 14.0277 2.228C14.0357 2.172 14.0397 2.116 14.0397 2.06C14.0397 1.652 13.9477 1.348 13.7637 1.148C13.5877 0.94 13.3557 0.836 13.0677 0.836C12.8037 0.844 12.5557 0.848 12.3237 0.848C12.0997 0.848 11.8917 0.876 11.6997 0.931999C11.5157 0.98 11.3557 1.08 11.2197 1.232C11.0837 1.376 10.9797 1.6 10.9077 1.904C10.7317 2.608 10.5917 3.232 10.4877 3.776C10.7197 3.76 10.9677 3.744 11.2317 3.728C11.4957 3.712 11.7757 3.7 12.0717 3.692C12.2557 3.684 12.4477 3.668 12.6477 3.644C12.8557 3.612 13.0397 3.576 13.1997 3.536C13.3597 3.496 13.4637 3.46 13.5117 3.428C13.5517 3.404 13.5717 3.4 13.5717 3.416C13.5797 3.432 13.5717 3.46 13.5477 3.5C13.4837 3.62 13.3757 3.732 13.2237 3.836C13.0717 3.94 12.9397 4.016 12.8277 4.064C12.7317 4.112 12.6357 4.144 12.5397 4.16C12.4437 4.168 12.3397 4.172 12.2277 4.172C11.7957 4.172 11.4397 4.168 11.1597 4.16C10.8797 4.152 10.6317 4.148 10.4157 4.148C10.3517 4.508 10.2877 4.876 10.2237 5.252C10.1677 5.628 10.1077 6.052 10.0437 6.524C10.0357 6.564 10.0277 6.608 10.0197 6.656C10.0197 6.696 10.0197 6.736 10.0197 6.776C10.0197 6.984 10.1037 7.152 10.2717 7.28C10.4397 7.408 10.7797 7.472 11.2917 7.472C11.8917 7.472 12.4237 7.3 12.8877 6.956C13.3517 6.604 13.7157 6.168 13.9797 5.648L14.0997 5.732C14.0597 5.82 14.0037 5.96 13.9317 6.152C13.8677 6.344 13.7877 6.556 13.6917 6.788C13.5957 7.012 13.4877 7.22 13.3677 7.412C13.2477 7.604 13.1157 7.748 12.9717 7.844C12.8837 7.9 12.7117 7.928 12.4557 7.928ZM18.6766 8.084C18.2526 8.084 17.8406 8.024 17.4406 7.904C17.0406 7.776 16.6806 7.58 16.3606 7.316C16.0406 7.052 15.7806 6.708 15.5806 6.284C15.4126 5.908 15.3286 5.496 15.3286 5.048C15.3286 4.624 15.4006 4.192 15.5446 3.752C15.6886 3.304 15.8926 2.876 16.1566 2.468C16.4206 2.052 16.7326 1.684 17.0926 1.364C17.5006 1.004 17.9486 0.716 18.4366 0.5C18.9326 0.284 19.4366 0.176 19.9486 0.176C20.3726 0.176 20.7806 0.236 21.1726 0.356C21.5726 0.476 21.9366 0.668 22.2646 0.931999C22.5926 1.196 22.8526 1.54 23.0446 1.964C23.2126 2.332 23.2966 2.74 23.2966 3.188C23.2966 3.612 23.2246 4.048 23.0806 4.496C22.9366 4.944 22.7326 5.376 22.4686 5.792C22.2046 6.2 21.8886 6.564 21.5206 6.884C21.1206 7.244 20.6766 7.536 20.1886 7.76C19.7006 7.976 19.1966 8.084 18.6766 8.084ZM19.3966 7.16C19.7486 7.16 20.0846 7.1 20.4046 6.98C20.7246 6.86 21.0086 6.692 21.2566 6.476C21.5526 6.22 21.8006 5.868 22.0006 5.42C22.2086 4.972 22.3126 4.492 22.3126 3.98C22.3126 3.596 22.2366 3.212 22.0846 2.828C21.9406 2.444 21.6966 2.092 21.3526 1.772C21.0406 1.484 20.7046 1.276 20.3446 1.148C19.9926 1.012 19.6406 0.944 19.2886 0.944C18.9446 0.944 18.6126 1.004 18.2926 1.124C17.9726 1.236 17.6846 1.404 17.4286 1.628C17.1326 1.876 16.8806 2.228 16.6726 2.684C16.4726 3.132 16.3726 3.612 16.3726 4.124C16.3726 4.508 16.4446 4.892 16.5886 5.276C16.7406 5.652 16.9886 6 17.3326 6.32C17.6446 6.608 17.9766 6.82 18.3286 6.956C18.6886 7.092 19.0446 7.16 19.3966 7.16ZM23.9062 7.844C23.8822 7.844 23.8702 7.832 23.8702 7.808C23.8702 7.776 23.8902 7.74 23.9302 7.7C23.9702 7.652 24.0062 7.632 24.0382 7.64C24.1582 7.64 24.2702 7.644 24.3742 7.652C24.4862 7.652 24.5862 7.652 24.6742 7.652C24.9622 7.652 25.1862 7.64 25.3462 7.616C25.5142 7.584 25.6422 7.524 25.7302 7.436C25.8262 7.34 25.9062 7.2 25.9702 7.016C26.0342 6.832 26.1062 6.588 26.1862 6.284C26.3862 5.564 26.5622 4.836 26.7142 4.1C26.8742 3.356 27.0182 2.616 27.1462 1.88C27.1622 1.792 27.1742 1.708 27.1822 1.628C27.1982 1.548 27.2062 1.48 27.2062 1.424C27.2062 1.216 27.1382 1.08 27.0022 1.016C26.8742 0.952 26.6462 0.92 26.3182 0.92C25.8382 0.92 25.4422 1.076 25.1302 1.388C24.8182 1.692 24.5542 2.108 24.3382 2.636C24.3302 2.66 24.3142 2.672 24.2902 2.672C24.2742 2.672 24.2542 2.66 24.2302 2.636C24.2142 2.604 24.2102 2.572 24.2182 2.54C24.2582 2.444 24.3022 2.316 24.3502 2.156C24.3982 1.988 24.4582 1.808 24.5302 1.616C24.6182 1.384 24.6942 1.172 24.7582 0.98C24.8302 0.78 24.9222 0.62 25.0342 0.5C25.1462 0.38 25.3102 0.328 25.5262 0.344C25.8302 0.368 26.2142 0.395999 26.6782 0.427999C27.1502 0.452 27.6422 0.464 28.1542 0.464C28.4422 0.464 28.6982 0.46 28.9222 0.452C29.1542 0.444 29.3902 0.431999 29.6302 0.416C29.8702 0.4 30.1582 0.384 30.4942 0.368C30.7022 0.352 30.8462 0.38 30.9262 0.452C31.0062 0.516 31.0462 0.628 31.0462 0.788C31.0462 0.884 31.0342 1 31.0102 1.136C30.9782 1.32 30.9502 1.484 30.9262 1.628C30.9102 1.772 30.8942 1.92 30.8782 2.072C30.8702 2.224 30.8502 2.408 30.8182 2.624C30.8102 2.672 30.7822 2.696 30.7342 2.696C30.7102 2.696 30.6862 2.68 30.6622 2.648C30.6462 2.616 30.6422 2.572 30.6502 2.516C30.6742 2.356 30.6862 2.216 30.6862 2.096C30.6862 1.696 30.5942 1.42 30.4102 1.268C30.2262 1.108 29.9862 1.028 29.6902 1.028C29.3062 1.028 29.0222 1.072 28.8382 1.16C28.6542 1.248 28.5302 1.344 28.4662 1.448C28.4022 1.544 28.3462 1.62 28.2982 1.676C28.2742 1.708 28.2342 1.836 28.1782 2.06C28.1222 2.284 28.0582 2.568 27.9862 2.912C27.9142 3.256 27.8422 3.62 27.7702 4.004C27.6982 4.388 27.6302 4.76 27.5662 5.12C27.5022 5.48 27.4502 5.788 27.4102 6.044C27.3702 6.3 27.3502 6.468 27.3502 6.548C27.3502 6.596 27.3462 6.66 27.3382 6.74C27.3302 6.812 27.3262 6.892 27.3262 6.98C27.3262 7.116 27.3462 7.244 27.3862 7.364C27.4262 7.484 27.5142 7.556 27.6502 7.58C27.7142 7.588 27.8222 7.596 27.9742 7.604C28.1342 7.612 28.3102 7.62 28.5022 7.628C28.7022 7.636 28.8902 7.64 29.0662 7.64C29.2422 7.64 29.3742 7.636 29.4622 7.628C29.5022 7.628 29.5222 7.644 29.5222 7.676C29.5222 7.708 29.5022 7.744 29.4622 7.784C29.4222 7.824 29.3822 7.844 29.3422 7.844C29.1342 7.844 28.8702 7.84 28.5502 7.832C28.2302 7.824 27.8942 7.816 27.5422 7.808C27.1982 7.8 26.8782 7.796 26.5822 7.796C26.4782 7.796 26.3742 7.796 26.2702 7.796C26.1742 7.796 26.0862 7.8 26.0062 7.808C25.8942 7.808 25.7222 7.812 25.4902 7.82C25.2582 7.828 25.0022 7.836 24.7222 7.844C24.4422 7.844 24.1742 7.844 23.9182 7.844H23.9062ZM30.2458 7.844C30.2218 7.844 30.2098 7.832 30.2098 7.808C30.2098 7.776 30.2298 7.74 30.2698 7.7C30.3178 7.652 30.3578 7.632 30.3898 7.64C30.5818 7.64 30.7538 7.644 30.9058 7.652C31.0578 7.652 31.1898 7.652 31.3018 7.652C31.5898 7.652 31.8018 7.624 31.9378 7.568C32.0738 7.504 32.1818 7.376 32.2618 7.184C32.3418 6.992 32.4378 6.696 32.5498 6.296C32.7978 5.424 33.0018 4.588 33.1618 3.788C33.3218 2.98 33.4738 2.14 33.6178 1.268C33.6258 1.244 33.6298 1.208 33.6298 1.16C33.6298 1.024 33.5898 0.912 33.5098 0.823999C33.4298 0.728 33.3458 0.672 33.2578 0.655999C33.1778 0.64 33.0418 0.628 32.8498 0.62C32.6658 0.612 32.4818 0.607999 32.2978 0.607999C32.1138 0.599999 31.9938 0.599999 31.9378 0.607999C31.8978 0.607999 31.8778 0.592 31.8778 0.56C31.8778 0.528 31.8978 0.496 31.9378 0.464C31.9778 0.424 32.0178 0.404 32.0578 0.404C32.3698 0.404 32.7338 0.412 33.1498 0.427999C33.5658 0.444 33.9578 0.452 34.3258 0.452C34.4218 0.452 34.5098 0.452 34.5898 0.452C34.6778 0.452 34.7618 0.448 34.8418 0.439999C34.9778 0.431999 35.1898 0.424 35.4778 0.416C35.7738 0.408 36.0818 0.404 36.4018 0.404C36.5058 0.404 36.6058 0.408 36.7018 0.416C36.8058 0.416 36.9018 0.416 36.9898 0.416H37.0018C37.0258 0.416 37.0378 0.428 37.0378 0.452C37.0378 0.484 37.0178 0.524 36.9778 0.572C36.9378 0.612 36.9018 0.628 36.8698 0.62C36.6698 0.62 36.4898 0.616 36.3298 0.607999C36.1778 0.599999 36.0378 0.595999 35.9098 0.595999C35.6298 0.595999 35.4178 0.628 35.2738 0.692C35.1298 0.747999 35.0178 0.875999 34.9378 1.076C34.8578 1.268 34.7618 1.564 34.6498 1.964C34.5858 2.212 34.5098 2.52 34.4218 2.888C34.3418 3.256 34.2578 3.648 34.1698 4.064C34.0818 4.472 33.9978 4.876 33.9178 5.276C33.8458 5.676 33.7818 6.04 33.7258 6.368C33.6698 6.688 33.6338 6.94 33.6178 7.124C33.6018 7.276 33.6338 7.392 33.7138 7.472C33.7938 7.544 33.8698 7.588 33.9418 7.604C34.0218 7.612 34.1538 7.62 34.3378 7.628C34.5298 7.636 34.7178 7.644 34.9018 7.652C35.0858 7.652 35.2058 7.652 35.2618 7.652H35.2738C35.3138 7.652 35.3338 7.664 35.3338 7.688C35.3338 7.72 35.3138 7.756 35.2738 7.796C35.2338 7.828 35.1898 7.844 35.1418 7.844C34.8218 7.844 34.4538 7.836 34.0378 7.82C33.6298 7.804 33.2418 7.796 32.8738 7.796C32.7778 7.796 32.6858 7.796 32.5978 7.796C32.5178 7.796 32.4378 7.8 32.3578 7.808C32.2378 7.808 32.0578 7.812 31.8178 7.82C31.5858 7.828 31.3298 7.836 31.0498 7.844C30.7778 7.844 30.5138 7.844 30.2578 7.844H30.2458ZM39.0353 7.88L37.2953 7.808C37.2233 7.808 37.1473 7.808 37.0673 7.808C36.9953 7.8 36.9193 7.796 36.8393 7.796C36.5193 7.796 36.1953 7.804 35.8673 7.82C35.5393 7.836 35.2113 7.844 34.8833 7.844L35.0153 7.64C35.1513 7.648 35.2793 7.656 35.3993 7.664C35.5193 7.664 35.6313 7.664 35.7353 7.664C36.0313 7.664 36.2953 7.616 36.5273 7.52C36.7673 7.416 37.0113 7.188 37.2593 6.836C37.3953 6.652 37.5633 6.4 37.7633 6.08C37.9633 5.752 38.1753 5.404 38.3993 5.036C38.2793 5.028 38.1673 5.024 38.0633 5.024C37.9593 5.024 37.8593 5.024 37.7633 5.024C37.6273 5.024 37.4833 5.028 37.3313 5.036C37.1793 5.036 37.0073 5.044 36.8153 5.06H36.6833C36.5873 5.06 36.5393 5.048 36.5393 5.024C36.5393 4.984 36.5953 4.94 36.7073 4.892C36.8193 4.836 36.9073 4.8 36.9713 4.784C37.1873 4.744 37.4313 4.716 37.7033 4.7C37.9833 4.684 38.2953 4.668 38.6393 4.652C38.8873 4.236 39.1273 3.828 39.3593 3.428C39.5993 3.02 39.8073 2.66 39.9833 2.348C40.1673 2.028 40.2953 1.792 40.3673 1.64C40.4153 1.536 40.4553 1.436 40.4873 1.34C40.5193 1.236 40.5353 1.136 40.5353 1.04C40.5353 0.904 40.4913 0.796 40.4033 0.715999C40.3233 0.628 40.1673 0.58 39.9353 0.572C39.7913 0.572 39.6313 0.576 39.4553 0.584C39.2793 0.592 39.1193 0.599999 38.9753 0.607999L39.0473 0.404C39.3513 0.42 39.6233 0.431999 39.8633 0.439999C40.1033 0.448 40.3113 0.452 40.4873 0.452C40.6073 0.452 40.7153 0.452 40.8113 0.452C40.9073 0.444 40.9873 0.439999 41.0513 0.439999C41.2273 0.431999 41.3953 0.427999 41.5553 0.427999C41.7153 0.427999 41.8873 0.424 42.0713 0.416C42.1593 0.416 42.1993 0.472 42.1913 0.584C42.1913 0.688 42.1953 0.824 42.2033 0.991999C42.2753 1.912 42.3553 2.8 42.4433 3.656C42.5393 4.512 42.6713 5.392 42.8393 6.296C42.9193 6.696 43.0233 6.996 43.1513 7.196C43.2793 7.388 43.4153 7.516 43.5593 7.58C43.7113 7.636 43.8553 7.664 43.9913 7.664C44.0473 7.664 44.0993 7.664 44.1473 7.664C44.1953 7.656 44.2393 7.652 44.2793 7.652L44.1713 7.844C44.0513 7.836 43.9473 7.832 43.8593 7.832C43.7713 7.832 43.6913 7.832 43.6193 7.832C43.4433 7.832 43.3073 7.836 43.2113 7.844C43.1233 7.852 43.0113 7.852 42.8753 7.844C42.4593 7.82 42.0553 7.808 41.6633 7.808C41.3193 7.808 40.9673 7.82 40.6073 7.844L40.7273 7.652C40.8393 7.652 40.9753 7.652 41.1353 7.652C41.2953 7.644 41.4353 7.608 41.5553 7.544C41.6833 7.48 41.7473 7.36 41.7473 7.184C41.7473 6.984 41.7313 6.7 41.6993 6.332C41.6673 5.964 41.6233 5.556 41.5673 5.108C41.5113 4.652 41.4513 4.2 41.3873 3.752C41.3313 3.304 41.2753 2.9 41.2193 2.54C41.1633 2.172 41.1153 1.896 41.0753 1.712C40.7633 2.2 40.4593 2.688 40.1633 3.176C39.8673 3.656 39.5753 4.136 39.2873 4.616L39.9593 4.58C40.1433 4.572 40.3393 4.556 40.5473 4.532C40.7553 4.5 40.9393 4.468 41.0993 4.436C41.2593 4.396 41.3593 4.36 41.3993 4.328C41.4153 4.312 41.4313 4.304 41.4473 4.304C41.4793 4.304 41.4753 4.336 41.4353 4.4C41.3793 4.512 41.2713 4.62 41.1113 4.724C40.9593 4.828 40.8273 4.908 40.7153 4.964C40.5713 5.028 40.4233 5.06 40.2713 5.06C40.1273 5.06 39.9753 5.06 39.8153 5.06C39.6633 5.06 39.5233 5.06 39.3953 5.06C39.2753 5.052 39.1593 5.048 39.0473 5.048C38.9273 5.256 38.8113 5.464 38.6993 5.672C38.5873 5.88 38.4753 6.088 38.3633 6.296C38.2593 6.496 38.1833 6.668 38.1353 6.812C38.0873 6.956 38.0633 7.08 38.0633 7.184C38.0633 7.4 38.1433 7.54 38.3033 7.604C38.4633 7.66 38.6353 7.688 38.8193 7.688C38.8833 7.688 38.9433 7.688 38.9993 7.688C39.0633 7.68 39.1233 7.676 39.1793 7.676L39.0353 7.88Z" fill="white"/>
</svg>
